<?xml version="1.0" encoding="UTF-8"?>
<svg id="Layer_1" data-name="Layer 1" xmlns="http://www.w3.org/2000/svg" viewBox="0 0 100 100">
  <defs>
    <style>
      .cls-1 {
        fill: #c1272d;
      }

      .cls-2 {
        fill: #191919;
      }
    </style>
  </defs>
  <path class="cls-2" d="M19.96,53.78l-2.17-7.21c-.1-.33.15-.66.49-.66h0c.23,0,.43.15.49.37l1.18,4.14c.13.46.26.95.4,1.47.13.53.27,1.09.41,1.71h-.17c.14-.6.27-1.16.41-1.68.14-.53.27-1.02.41-1.49l1.2-3.98c.09-.31.38-.52.7-.52h0c.32,0,.61.21.7.52l1.19,3.98c.14.46.27.95.41,1.48.14.53.27,1.09.41,1.7h-.19c.14-.6.28-1.16.41-1.69.13-.52.27-1.02.4-1.49l1.18-4.14c.06-.22.26-.37.49-.37h0c.34,0,.59.33.49.66l-2.16,7.2c-.09.3-.37.51-.69.51h0c-.32,0-.6-.21-.69-.51l-1.29-4.2c-.1-.32-.19-.65-.28-.97-.09-.33-.18-.66-.26-.99-.09-.34-.17-.68-.27-1.03h.26c-.09.34-.17.69-.26,1.02-.09.34-.18.67-.27,1-.09.33-.18.65-.27.97l-1.29,4.2c-.09.3-.37.51-.68.51h0c-.32,0-.6-.21-.69-.51Z"/>
  <path class="cls-2" d="M34.2,54.46c-.73,0-1.37-.18-1.93-.55-.56-.37-1-.88-1.32-1.53-.32-.65-.47-1.4-.47-2.25s.16-1.62.47-2.27c.32-.65.75-1.16,1.32-1.53.56-.37,1.21-.55,1.93-.55s1.39.18,1.95.55c.56.37,1,.88,1.31,1.53.32.65.47,1.41.47,2.26s-.16,1.59-.47,2.25c-.32.65-.75,1.16-1.31,1.53-.56.37-1.21.55-1.95.55ZM34.2,53.55c.58,0,1.07-.15,1.47-.46.4-.31.71-.72.92-1.23s.32-1.09.32-1.71-.11-1.21-.32-1.73c-.21-.52-.52-.93-.93-1.24-.4-.31-.89-.46-1.46-.46s-1.05.15-1.45.46c-.4.31-.71.72-.92,1.24s-.32,1.09-.32,1.73.11,1.2.32,1.72.52.92.92,1.23c.4.31.89.46,1.45.46Z"/>
  <path class="cls-2" d="M41.11,45.8c.27.01.48.26.48.54v6c0,.4.09.69.27.88.22.23.54.23.83.24.05,0,.12,0,.19,0,.23-.02.43.14.47.37h0c.05.26-.14.51-.4.54-.09,0-.18.01-.29.01-.38,0-1.05,0-1.54-.47-.37-.35-.55-.84-.55-1.48v-6.11c0-.29.24-.52.54-.51Z"/>
  <path class="cls-1" d="M43.32,47.91h0c0,.25-.2.44-.44.44h-3.15c-.25,0-.44-.2-.44-.44h0c0-.25.2-.44.44-.44h3.15c.25,0,.44.2.44.44Z"/>
  <path class="cls-2" d="M13.64,45.8c.27.01.48.26.48.54v6c0,.4.09.69.27.88.22.23.54.23.83.24.05,0,.12,0,.19,0,.23-.02.43.14.47.37h0c.05.26-.14.51-.4.54-.09,0-.18.01-.29.01-.38,0-1.05,0-1.54-.47-.37-.35-.55-.84-.55-1.48v-6.11c0-.29.24-.52.54-.51Z"/>
  <path class="cls-1" d="M15.85,47.91h0c0,.25-.2.44-.44.44h-3.15c-.25,0-.44-.2-.44-.44h0c0-.25.2-.44.44-.44h3.15c.25,0,.44.2.44.44Z"/>
  <path class="cls-2" d="M47.41,53.78l-2.17-7.21c-.1-.33.15-.66.49-.66h0c.23,0,.43.15.49.37l1.18,4.14c.13.46.26.95.4,1.47.13.53.27,1.09.41,1.71h-.17c.14-.6.27-1.16.41-1.68.14-.53.27-1.02.41-1.49l1.2-3.98c.09-.31.38-.52.7-.52h0c.32,0,.61.21.7.52l1.19,3.98c.14.46.27.95.41,1.48.14.53.27,1.09.41,1.7h-.19c.14-.6.28-1.16.41-1.69.13-.52.27-1.02.4-1.49l1.18-4.14c.06-.22.26-.37.49-.37h0c.34,0,.59.33.49.66l-2.16,7.2c-.09.3-.37.51-.69.51h0c-.32,0-.6-.21-.69-.51l-1.28-4.2c-.1-.32-.19-.65-.28-.97-.09-.33-.18-.66-.26-.99-.08-.3-.15-.6-.23-.9-.02-.06.03-.13.1-.13h0c.07,0,.11.06.1.13-.08.3-.15.6-.23.9-.09.34-.18.67-.27,1-.09.33-.18.65-.27.97l-1.29,4.2c-.09.3-.37.51-.68.51h0c-.32,0-.6-.21-.69-.51Z"/>
  <path class="cls-2" d="M61.65,54.46c-.73,0-1.37-.18-1.93-.55-.56-.37-1-.88-1.32-1.53-.32-.65-.47-1.4-.47-2.25s.16-1.62.47-2.27c.32-.65.75-1.16,1.32-1.53.56-.37,1.21-.55,1.93-.55s1.39.18,1.95.55c.56.37,1,.88,1.31,1.53.32.65.47,1.41.47,2.26s-.16,1.59-.47,2.25c-.32.65-.75,1.16-1.31,1.53-.56.37-1.21.55-1.95.55ZM61.65,53.55c.58,0,1.07-.15,1.47-.46.4-.31.71-.72.92-1.23s.32-1.09.32-1.71-.11-1.21-.32-1.73c-.21-.52-.52-.93-.93-1.24-.4-.31-.89-.46-1.46-.46s-1.05.15-1.45.46c-.4.31-.71.72-.92,1.24s-.32,1.09-.32,1.73.11,1.2.32,1.72.52.92.92,1.23c.4.31.89.46,1.45.46Z"/>
  <path class="cls-2" d="M67.86,53.75v-7.84h.98v1.32h.07c.17-.43.46-.78.86-1.04.55-.35,1.1-.38,1.41-.39,0,0,0,0,0,0,.27-.01.49.21.49.47v.04c0,.27-.22.48-.49.48-.03,0-.07,0-.11,0-.22,0-.66.02-1.13.27-.33.18-.6.43-.78.76-.19.32-.28.7-.28,1.13v4.83c0,.29-.24.52-.54.51-.27-.01-.48-.26-.48-.54Z"/>
  <path class="cls-2" d="M74.29,54.29c-.28,0-.51-.23-.51-.51v-6.32h0s1.02,0,1.02,0h0v6.32c0,.28-.23.51-.51.51h0Z"/>
  <path class="cls-2" d="M79.98,54.46c-.51,0-.98-.1-1.4-.29-.42-.19-.76-.48-1.01-.85-.25-.38-.38-.84-.38-1.38,0-.42.08-.77.24-1.05.16-.28.38-.51.67-.69.29-.18.63-.32,1.03-.43.4-.11.84-.19,1.32-.25.48-.06.87-.11,1.2-.16.32-.04.57-.11.74-.21.17-.1.25-.25.25-.46v-.18c0-.37-.08-.7-.24-.96-.16-.27-.38-.48-.68-.62-.3-.15-.66-.22-1.08-.22s-.76.06-1.07.19c-.31.13-.56.3-.75.51-.1.11-.19.22-.26.34-.12.2-.35.31-.57.25h0c-.32-.08-.48-.46-.31-.75.12-.21.27-.4.45-.56.32-.3.7-.53,1.14-.67.43-.15.89-.22,1.37-.22.35,0,.71.05,1.07.14.36.1.69.25.98.47.29.22.53.5.71.86.18.36.27.8.27,1.32v5.21c0,.28-.22.5-.5.5h0c-.28,0-.5-.22-.5-.5v-.83h-.07c-.12.26-.29.5-.52.73-.23.23-.52.42-.87.56-.35.14-.75.22-1.22.22ZM80.13,53.55c.52,0,.97-.11,1.35-.33.21-.12.39-.27.55-.45.1-.11.17-.23.32-.46.08-.13.17-.26.26-.44.08-.15.18-.37.28-.63.11-.28.22-.57.33-.88.18-.51.32-1,.45-1.46-.19.29-.39.5-.55.63-.15.13-.41.36-.82.51-.17.06-.3.09-.57.15-.21.04-.43.08-.66.11-.22.03-.43.06-.62.08-.47.06-.86.15-1.2.27-.33.12-.59.29-.77.5-.18.21-.27.49-.27.82s.08.61.25.84.39.41.68.53c.29.12.61.19.98.19Z"/>
  <path class="cls-2" d="M87.6,46.31v7.47c0,.28-.23.51-.51.51h0c-.28,0-.51-.23-.51-.51v-7.47c0-.28.23-.51.51-.51h0c.28,0,.51.23.51.51Z"/>
  <path class="cls-2" d="M74.29,45.79c.28,0,.51.23.51.51v.19h0s-1.02,0-1.02,0h0v-.19c0-.28.23-.51.51-.51h0Z"/>
</svg>